<svg width="112" height="90" viewBox="0 0 112 90" fill="none" xmlns="http://www.w3.org/2000/svg">
<path d="M6 39C2.68629 39 0 41.6863 0 45C0 48.3137 2.68629 51 6 51V39ZM110.243 49.2426C112.586 46.8995 112.586 43.1005 110.243 40.7574L72.0589 2.57359C69.7157 0.230447 65.9167 0.230447 63.5736 2.57359C61.2304 4.91674 61.2304 8.71573 63.5736 11.0589L97.5147 45L63.5736 78.9411C61.2304 81.2843 61.2304 85.0833 63.5736 87.4264C65.9167 89.7696 69.7157 89.7696 72.0589 87.4264L110.243 49.2426ZM6 51H106V39H6V51Z" fill="white"/>
</svg>
